<svg width="22" height="25" viewBox="0 0 22 25" fill="none" xmlns="http://www.w3.org/2000/svg">
<path d="M16.5416 3.15334V1.33334C16.5416 0.85501 16.145 0.458344 15.6666 0.458344C15.1883 0.458344 14.7916 0.85501 14.7916 1.33334V3.08334H7.20832V1.33334C7.20832 0.85501 6.81165 0.458344 6.33332 0.458344C5.85498 0.458344 5.45832 0.85501 5.45832 1.33334V3.15334C2.30832 3.44501 0.779983 5.32334 0.546649 8.11168C0.523316 8.45001 0.803316 8.73001 1.12998 8.73001H20.87C21.2083 8.73001 21.4883 8.43834 21.4533 8.11168C21.22 5.32334 19.6916 3.44501 16.5416 3.15334Z" fill="white"/>
<path d="M20.3333 10.48H1.66667C1.025 10.48 0.5 11.005 0.5 11.6467V18.8334C0.5 22.3334 2.25 24.6667 6.33333 24.6667H15.6667C19.75 24.6667 21.5 22.3334 21.5 18.8334V11.6467C21.5 11.005 20.975 10.48 20.3333 10.48ZM7.745 20.245C7.68667 20.2917 7.62833 20.35 7.57 20.385C7.5 20.4317 7.43 20.4667 7.36 20.49C7.29 20.525 7.22 20.5484 7.15 20.56C7.06833 20.5717 6.99833 20.5834 6.91667 20.5834C6.765 20.5834 6.61333 20.5484 6.47333 20.49C6.32167 20.4317 6.205 20.35 6.08833 20.245C5.87833 20.0234 5.75 19.72 5.75 19.4167C5.75 19.1134 5.87833 18.81 6.08833 18.5884C6.205 18.4834 6.32167 18.4017 6.47333 18.3434C6.68333 18.25 6.91667 18.2267 7.15 18.2734C7.22 18.285 7.29 18.3084 7.36 18.3434C7.43 18.3667 7.5 18.4017 7.57 18.4484C7.62833 18.495 7.68667 18.5417 7.745 18.5884C7.955 18.81 8.08333 19.1134 8.08333 19.4167C8.08333 19.72 7.955 20.0234 7.745 20.245ZM7.745 16.1617C7.52333 16.3717 7.22 16.5 6.91667 16.5C6.61333 16.5 6.31 16.3717 6.08833 16.1617C5.87833 15.94 5.75 15.6367 5.75 15.3334C5.75 15.03 5.87833 14.7267 6.08833 14.505C6.415 14.1784 6.92833 14.0734 7.36 14.26C7.51167 14.3184 7.64 14.4 7.745 14.505C7.955 14.7267 8.08333 15.03 8.08333 15.3334C8.08333 15.6367 7.955 15.94 7.745 16.1617ZM11.8283 20.245C11.6067 20.455 11.3033 20.5834 11 20.5834C10.6967 20.5834 10.3933 20.455 10.1717 20.245C9.96167 20.0234 9.83333 19.72 9.83333 19.4167C9.83333 19.1134 9.96167 18.81 10.1717 18.5884C10.6033 18.1567 11.3967 18.1567 11.8283 18.5884C12.0383 18.81 12.1667 19.1134 12.1667 19.4167C12.1667 19.72 12.0383 20.0234 11.8283 20.245ZM11.8283 16.1617C11.77 16.2084 11.7117 16.255 11.6533 16.3017C11.5833 16.3484 11.5133 16.3834 11.4433 16.4067C11.3733 16.4417 11.3033 16.465 11.2333 16.4767C11.1517 16.4884 11.0817 16.5 11 16.5C10.6967 16.5 10.3933 16.3717 10.1717 16.1617C9.96167 15.94 9.83333 15.6367 9.83333 15.3334C9.83333 15.03 9.96167 14.7267 10.1717 14.505C10.2767 14.4 10.405 14.3184 10.5567 14.26C10.9883 14.0734 11.5017 14.1784 11.8283 14.505C12.0383 14.7267 12.1667 15.03 12.1667 15.3334C12.1667 15.6367 12.0383 15.94 11.8283 16.1617ZM15.9117 20.245C15.69 20.455 15.3867 20.5834 15.0833 20.5834C14.78 20.5834 14.4767 20.455 14.255 20.245C14.045 20.0234 13.9167 19.72 13.9167 19.4167C13.9167 19.1134 14.045 18.81 14.255 18.5884C14.6867 18.1567 15.48 18.1567 15.9117 18.5884C16.1217 18.81 16.25 19.1134 16.25 19.4167C16.25 19.72 16.1217 20.0234 15.9117 20.245ZM15.9117 16.1617C15.8533 16.2084 15.795 16.255 15.7367 16.3017C15.6667 16.3484 15.5967 16.3834 15.5267 16.4067C15.4567 16.4417 15.3867 16.465 15.3167 16.4767C15.235 16.4884 15.1533 16.5 15.0833 16.5C14.78 16.5 14.4767 16.3717 14.255 16.1617C14.045 15.94 13.9167 15.6367 13.9167 15.3334C13.9167 15.03 14.045 14.7267 14.255 14.505C14.3717 14.4 14.4883 14.3184 14.64 14.26C14.85 14.1667 15.0833 14.1434 15.3167 14.19C15.3867 14.2017 15.4567 14.225 15.5267 14.26C15.5967 14.2834 15.6667 14.3184 15.7367 14.365C15.795 14.4117 15.8533 14.4584 15.9117 14.505C16.1217 14.7267 16.25 15.03 16.25 15.3334C16.25 15.6367 16.1217 15.94 15.9117 16.1617Z" fill="white"/>
</svg>
