<svg width="24" height="24" viewBox="0 0 24 24" fill="none" xmlns="http://www.w3.org/2000/svg">
<path d="M21.38 5.95667L14.66 1.255C12.8283 -0.0283349 10.0167 0.0416654 8.25499 1.40667L2.40999 5.96833C1.24332 6.87833 0.321655 8.745 0.321655 10.215V18.265C0.321655 21.24 2.73666 23.6667 5.71165 23.6667H18.2883C21.2633 23.6667 23.6783 21.2517 23.6783 18.2767V10.3667C23.6783 8.79167 22.6633 6.855 21.38 5.95667ZM12.875 19C12.875 19.4783 12.4783 19.875 12 19.875C11.5217 19.875 11.125 19.4783 11.125 19V15.5C11.125 15.0217 11.5217 14.625 12 14.625C12.4783 14.625 12.875 15.0217 12.875 15.5V19Z" fill="white"/>
</svg>
