<svg width="24" height="20" viewBox="0 0 24 20" fill="none" xmlns="http://www.w3.org/2000/svg">
<path d="M17.8333 0.0833359H6.16665C2.66665 0.0833359 0.333313 1.83334 0.333313 5.91667V14.0833C0.333313 18.1667 2.66665 19.9167 6.16665 19.9167H17.8333C21.3333 19.9167 23.6666 18.1667 23.6666 14.0833V5.91667C23.6666 1.83334 21.3333 0.0833359 17.8333 0.0833359ZM18.3816 7.18834L14.73 10.105C13.96 10.7233 12.98 11.0267 12 11.0267C11.02 11.0267 10.0283 10.7233 9.26998 10.105L5.61831 7.18834C5.24498 6.885 5.18665 6.325 5.47831 5.95167C5.78165 5.57834 6.32998 5.50834 6.70331 5.81167L10.355 8.72834C11.2416 9.44 12.7466 9.44 13.6333 8.72834L17.285 5.81167C17.6583 5.50834 18.2183 5.56667 18.51 5.95167C18.8133 6.325 18.755 6.885 18.3816 7.18834Z" fill="white"/>
</svg>
