<svg width="24" height="24" viewBox="0 0 24 24" fill="none" xmlns="http://www.w3.org/2000/svg">
<path d="M21.45 8.75674C19.3383 8.75674 18.475 7.26341 19.525 5.43174C20.1316 4.37007 19.77 3.01674 18.7083 2.41007L16.69 1.25507C15.7683 0.70674 14.5783 1.03341 14.03 1.95507L13.9016 2.17674C12.8516 4.00841 11.125 4.00841 10.0633 2.17674L9.93498 1.95507C9.40998 1.03341 8.21998 0.70674 7.29831 1.25507L5.27998 2.41007C4.21831 3.01674 3.85665 4.38174 4.46331 5.44341C5.52498 7.26341 4.66165 8.75674 2.54998 8.75674C1.33665 8.75674 0.333313 9.74841 0.333313 10.9734V13.0267C0.333313 14.2401 1.32498 15.2434 2.54998 15.2434C4.66165 15.2434 5.52498 16.7367 4.46331 18.5684C3.85665 19.6301 4.21831 20.9834 5.27998 21.5901L7.29831 22.7451C8.21998 23.2934 9.40998 22.9667 9.95831 22.0451L10.0866 21.8234C11.1366 19.9917 12.8633 19.9917 13.925 21.8234L14.0533 22.0451C14.6016 22.9667 15.7916 23.2934 16.7133 22.7451L18.7316 21.5901C19.7933 20.9834 20.155 19.6184 19.5483 18.5684C18.4866 16.7367 19.35 15.2434 21.4616 15.2434C22.675 15.2434 23.6783 14.2517 23.6783 13.0267V10.9734C23.6666 9.76007 22.675 8.75674 21.45 8.75674ZM12 15.7917C9.91165 15.7917 8.20831 14.0884 8.20831 12.0001C8.20831 9.91174 9.91165 8.20841 12 8.20841C14.0883 8.20841 15.7916 9.91174 15.7916 12.0001C15.7916 14.0884 14.0883 15.7917 12 15.7917Z" fill="white"/>
</svg>
