<svg width="24" height="24" viewBox="0 0 24 24" fill="none" xmlns="http://www.w3.org/2000/svg">
<path d="M8.49998 0.333328C5.44331 0.333328 2.95831 2.81833 2.95831 5.875C2.95831 8.87333 5.30331 11.3 8.35998 11.405C8.45331 11.3933 8.54665 11.3933 8.61665 11.405C8.63998 11.405 8.65165 11.405 8.67498 11.405C8.68665 11.405 8.68665 11.405 8.69831 11.405C11.685 11.3 14.03 8.87333 14.0416 5.875C14.0416 2.81833 11.5566 0.333328 8.49998 0.333328Z" fill="white"/>
<path d="M14.4267 14.5083C11.1717 12.3383 5.86335 12.3383 2.58502 14.5083C1.10335 15.5 0.286682 16.8417 0.286682 18.2767C0.286682 19.7117 1.10335 21.0417 2.57335 22.0217C4.20668 23.1183 6.35335 23.6667 8.50002 23.6667C10.6467 23.6667 12.7933 23.1183 14.4267 22.0217C15.8967 21.03 16.7134 19.7 16.7134 18.2533C16.7017 16.8183 15.8967 15.4883 14.4267 14.5083Z" fill="white"/>
<path d="M21.3217 6.56331C21.5083 8.82664 19.8983 10.81 17.67 11.0783C17.6583 11.0783 17.6583 11.0783 17.6467 11.0783H17.6117C17.5417 11.0783 17.4717 11.0783 17.4133 11.1016C16.2817 11.16 15.2433 10.7983 14.4617 10.1333C15.6633 9.05997 16.3517 7.44997 16.2117 5.69997C16.13 4.75497 15.8033 3.89164 15.3133 3.15664C15.7567 2.93497 16.27 2.79497 16.795 2.74831C19.0817 2.54997 21.1233 4.25331 21.3217 6.56331Z" fill="white"/>
<path d="M23.655 17.355C23.5617 18.4867 22.8383 19.4667 21.625 20.1317C20.4583 20.7734 18.9883 21.0767 17.53 21.0417C18.37 20.2834 18.86 19.3384 18.9533 18.335C19.07 16.8884 18.3817 15.5 17.005 14.3917C16.2233 13.7734 15.3133 13.2834 14.3217 12.9217C16.9 12.175 20.1433 12.6767 22.1383 14.2867C23.2117 15.15 23.76 16.235 23.655 17.355Z" fill="white"/>
</svg>
